<svg xmlns="http://www.w3.org/2000/svg">
	<defs>
		<!-- PLAY -->
		<symbol id="ain-play" viewBox="0 0 100 100" xmlns:xlink="http://www.w3.org/1999/xlink"><polygon points="7.7,0.32 7.7,99.68 93.74,50 "/></symbol>

		<!-- PAUSE -->
		<symbol id="ain-pause" viewBox="0 0 100 100" xmlns:xlink="http://www.w3.org/1999/xlink"><g><rect x="9.8" y="0" width="29.12" height="100"/><rect x="61.08" y="0" width="29.12" height="100"/></g></symbol>

		<!-- SKIP BACKWARD -->
		<symbol id="ain-skip-backward" viewBox="0 0 93 111" xmlns:xlink="http://www.w3.org/1999/xlink"><g><path d="M46.44,18.18V0.4L5.82,23.85L46.44,47.3V29.82c19.19,0,34.8,15.61,34.8,34.8s-15.61,34.8-34.8,34.8	c-19.19,0-34.8-15.61-34.8-34.8H0c0,25.61,20.83,46.44,46.44,46.44c25.61,0,46.44-20.83,46.44-46.44 C92.88,39.02,72.05,18.18,46.44,18.18z"/><g><path d="M28.56,77.81v-4h5.33V61.29h-0.77c-0.28,1.17-0.88,2.11-1.78,2.82s-1.92,1.1-3.04,1.17l-0.27-3.94 c1.39-0.14,2.62-0.66,3.72-1.54c1.09-0.89,1.83-1.99,2.22-3.3h5.25v17.31h4.53v4H28.56z"/> <path d="M54.37,78.07c-2.84,0-4.89-0.51-6.15-1.54s-1.95-2.83-2.08-5.41l5.33-0.27c0.16,1.44,0.45,2.38,0.87,2.82 c0.42,0.44,1.11,0.67,2.06,0.67c1.1,0,1.82-0.24,2.16-0.72c0.34-0.48,0.51-1.27,0.51-2.37v-0.75c0-0.98-0.21-1.69-0.63-2.14 c-0.42-0.45-1.34-0.68-2.76-0.68h-6.74V56.5h14.65v3.73h-9.32v3.49h3.33c2.24,0,3.93,0.48,5.07,1.45s1.72,2.44,1.72,4.41v2.48 c0,1.7-0.63,3.13-1.88,4.29S57.21,78.07,54.37,78.07z"/></g></g></symbol>

		<!-- SKIP FORWARD -->
		<symbol id="ain-skip-forward" viewBox="0 0 93 111" xmlns:xlink="http://www.w3.org/1999/xlink"><path d="M46.44,17.79V0l40.62,23.45L46.44,46.9V29.42c-19.19,0-34.8,15.61-34.8,34.8s15.61,34.8,34.8,34.8 c19.19,0,34.8-15.61,34.8-34.8h11.64c0,25.61-20.83,46.44-46.44,46.44C20.83,110.66,0,89.83,0,64.23 C0,38.62,20.83,17.79,46.44,17.79z"/><g><path d="M30.56,77.41v-4h5.33V60.9h-0.77c-0.28,1.17-0.88,2.11-1.78,2.82c-0.91,0.71-1.92,1.1-3.04,1.17l-0.27-3.94 c1.39-0.14,2.62-0.66,3.72-1.54c1.09-0.89,1.83-1.99,2.22-3.3h5.25v17.31h4.53v4H30.56z"/><path d="M56.37,77.68c-2.84,0-4.89-0.51-6.15-1.54s-1.95-2.83-2.08-5.41l5.33-0.27c0.16,1.44,0.45,2.38,0.87,2.82 c0.42,0.44,1.11,0.67,2.06,0.67c1.1,0,1.82-0.24,2.16-0.72c0.34-0.48,0.51-1.27,0.51-2.37v-0.75c0-0.98-0.21-1.69-0.63-2.14 c-0.42-0.45-1.34-0.68-2.76-0.68h-6.74V56.1h14.65v3.73h-9.32v3.49h3.33c2.24,0,3.93,0.48,5.07,1.45c1.15,0.97,1.72,2.44,1.72,4.41 v2.48c0,1.7-0.63,3.13-1.88,4.29S59.21,77.68,56.37,77.68z"/></g></symbol>

		<!-- MUTE -->
		<symbol id="ain-muted" viewBox="0 0 103 100" xmlns:xlink="http://www.w3.org/1999/xlink"><g><path d="M80.42,50.33c0-10.84-6.12-20.25-15.09-24.98v14.02l14.82,14.82C80.33,52.93,80.42,51.64,80.42,50.33z"/><path d="M103.73,91.81L11.94,0.02L3.9,8.06l21.85,21.85l-2.5,2.63H-0.29v35.53h23.53l30.37,31.91V57.77l11.72,11.72v5.81 c1.25-0.66,2.44-1.42,3.56-2.25l8.6,8.6c-3.6,2.9-7.7,5.21-12.17,6.74v11.58c7.49-1.96,14.31-5.58,20.05-10.43l10.31,10.31 L103.73,91.81z"/><polygon points="53.61,0.63 40.43,14.47 53.61,27.65"/><path d="M92.57,50.33c0,4.86-0.87,9.52-2.46,13.83l8.44,8.44c3.26-6.74,5.1-14.29,5.1-22.27c0-23.81-16.3-43.88-38.33-49.65v11.58 C81.16,17.67,92.57,32.69,92.57,50.33z"/></g></symbol>

		<!-- UNMUTE -->
		<symbol id="ain-unmuted" viewBox="0 0 103 100" xmlns:xlink="http://www.w3.org/1999/xlink"><g><path d="M65.11,25.05V75c8.97-4.72,15.09-14.13,15.09-24.98S74.09,29.77,65.11,25.05z"/><polygon points="53.39,0.32 23.03,32.23 -0.5,32.23 -0.5,67.77 23.03,67.77 53.39,99.68"/><path d="M65.11,0.37v11.58c15.83,5.42,27.25,20.43,27.25,38.07c0,17.64-11.42,32.66-27.25,38.08v11.58 c22.03-5.77,38.33-25.84,38.33-49.65S87.14,6.14,65.11,0.37z"/></g></symbol>
	</defs>
</svg>