<?xml version="1.0" encoding="iso-8859-1"?>
<svg enable-background="new 0 0 90 90" viewBox="0 0 90 90" xmlns="http://www.w3.org/2000/svg" fill="white">
<!-- Created by Joanne Lee -->
<path d="m0 53v24c0 2.1.8 4.2 2.3 5.7s3.6 2.3 5.7 2.3h4v-40h-4c-4.4 0-8 3.6-8 8z"/>
<path d="m20 40c-2.8 0-5 2.2-5 5v40c0 2.8 2.2 5 5 5s5-2.2 5-5v-40c0-1.3-.5-2.6-1.5-3.5s-2.2-1.5-3.5-1.5z"/>
<path d="m82 45h-4v40h4c2.1 0 4.2-.8 5.7-2.3s2.3-3.6 2.3-5.7v-24c0-2.1-.8-4.2-2.3-5.7s-3.6-2.3-5.7-2.3z"/>
<path d="m70 40c-2.8 0-5 2.2-5 5v40c0 2.8 2.2 5 5 5s5-2.2 5-5v-40c0-1.3-.5-2.6-1.5-3.5s-2.2-1.5-3.5-1.5z"/>
<path d="m35 58.2c-1 0-1.8.8-1.8 1.8v10c0 1 .8 1.8 1.8 1.8s1.8-.8 1.8-1.8v-10c0-.5-.2-.9-.5-1.2s-.8-.6-1.3-.6z"/>
<path d="m40 53.2c-1 0-1.8.8-1.8 1.8v20c0 1 .8 1.8 1.8 1.8s1.8-.8 1.8-1.8v-20c0-.5-.2-.9-.5-1.2s-.8-.6-1.3-.6z"/>
<path d="m45 58.2c-1 0-1.8.8-1.8 1.8v10c0 1 .8 1.8 1.8 1.8s1.8-.8 1.8-1.8v-10c0-.5-.2-.9-.5-1.2s-.8-.6-1.3-.6z"/>
<path d="m50 53.2c-1 0-1.8.8-1.8 1.8v20c0 1 .8 1.8 1.8 1.8s1.8-.8 1.8-1.8v-20c0-.5-.2-.9-.5-1.2s-.8-.6-1.3-.6z"/>
<path d="m55 58.2c-1 0-1.8.8-1.8 1.8v10c0 1 .8 1.8 1.8 1.8s1.8-.8 1.8-1.8v-10c0-.5-.2-.9-.5-1.2s-.8-.6-1.3-.6z"/>
<path d="m85 42.4v-2.4c0-14.3-7.6-27.5-20-34.6s-27.6-7.1-40 0-20 20.3-20 34.6v2.4c1-.3 2-.4 3-.4h4.6c.5-1.3 1.3-2.4 2.4-3.3.5-10.4 6.3-19.8 15.4-24.9s20.1-5.1 29.2 0 14.9 14.5 15.4 24.9c1.1.9 1.9 2 2.5 3.3h4.5c1 0 2 .1 3 .4z"/>
</svg>
