<?xml version="1.0" encoding="utf-8"?>
<!-- Joanne Lee  -->
<svg enable-background="new 0 0 90 90" viewBox="0 0 90 90" xmlns="http://www.w3.org/2000/svg" fill="white">
	<path d="M0,53v24c0,2.1,0.8,4.2,2.3,5.7S5.9,85,8,85h4V45H8C3.6,45,0,48.6,0,53z"/>
	<path d="M20,40c-2.8,0-5,2.2-5,5v40c0,2.8,2.2,5,5,5s5-2.2,5-5V45c0-1.3-0.5-2.6-1.5-3.5S21.3,40,20,40z"/>
	<path d="M82,45h-4v40h4c2.1,0,4.2-0.8,5.7-2.3S90,79.1,90,77V53c0-2.1-0.8-4.2-2.3-5.7S84.1,45,82,45z"/>
	<path d="M70,40c-2.8,0-5,2.2-5,5v40c0,2.8,2.2,5,5,5s5-2.2,5-5V45c0-1.3-0.5-2.6-1.5-3.5S71.3,40,70,40z"/>
	<path d="M31.1,55.5c-1.4,0-2.5,1.1-2.5,2.5V72c0,1.4,1.1,2.5,2.5,2.5s2.5-1.1,2.5-2.5V58c0-0.7-0.3-1.3-0.7-1.7 C32.5,55.9,31.8,55.5,31.1,55.5L31.1,55.5z"/>
	<path d="M38,48.5c-1.4,0-2.5,1.1-2.5,2.5v27.9c0,1.4,1.1,2.5,2.5,2.5c1.4,0,2.5-1.1,2.5-2.5V51.1c0-0.7-0.3-1.3-0.7-1.7 C39.4,49,38.7,48.5,38,48.5L38,48.5z"/>
	<path d="M45,55.5c-1.4,0-2.5,1.1-2.5,2.5V72c0,1.4,1.1,2.5,2.5,2.5s2.5-1.1,2.5-2.5V58c0-0.7-0.3-1.3-0.7-1.7 C46.4,55.9,45.7,55.5,45,55.5L45,55.5z"/>
	<path d="M52,48.5c-1.4,0-2.5,1.1-2.5,2.5v27.9c0,1.4,1.1,2.5,2.5,2.5c1.4,0,2.5-1.1,2.5-2.5V51.1c0-0.7-0.3-1.3-0.7-1.7 S52.7,48.5,52,48.5L52,48.5z"/>
	<path d="M58.9,55.5c-1.4,0-2.5,1.1-2.5,2.5V72c0,1.4,1.1,2.5,2.5,2.5c1.4,0,2.5-1.1,2.5-2.5V58c0-0.7-0.3-1.3-0.7-1.7 C60.3,55.9,59.6,55.5,58.9,55.5L58.9,55.5z"/>
	<path d="M85,42.4V40c0-14.3-7.6-27.5-20-34.6s-27.6-7.1-40,0S5,25.7,5,40v2.4C6,42.1,7,42,8,42h4.6c0.5-1.3,1.3-2.4,2.4-3.3 c0.5-10.4,6.3-19.8,15.4-24.9s20.1-5.1,29.2,0S74.5,28.3,75,38.7c1.1,0.9,1.9,2,2.5,3.3H82C83,42,84,42.1,85,42.4L85,42.4z"/>
</svg>
