<svg width="835" height="157" viewBox="0 0 835 157" fill="white" xmlns="http://www.w3.org/2000/svg">
<path d="M806.663 89.5717C809.761 86.2088 811.31 81.7623 811.309 76.2321C811.309 70.7032 809.76 66.234 806.663 62.8243C803.565 59.4158 799.294 57.7109 793.85 57.7097C788.405 57.7097 784.204 59.3917 781.248 62.7556C778.292 66.1195 776.813 70.6117 776.812 76.2322C776.812 81.7617 778.29 86.2083 781.248 89.5718C784.204 92.9361 788.405 94.6177 793.85 94.6167C799.292 94.6167 803.563 92.9351 806.663 89.5718V89.5717ZM769.518 111.342C764.273 107.593 760.101 102.543 757.414 96.6899C754.409 90.2915 752.894 83.2977 752.983 76.2322C752.9 69.1452 754.414 62.1302 757.414 55.7057C760.087 49.8256 764.261 44.7491 769.518 40.9843C774.493 37.4346 780.467 35.5477 786.583 35.5941C791.866 35.5239 797.071 36.8597 801.663 39.4639C805.822 41.7837 809.183 45.3002 811.309 49.5545V15.9645L835 15.9653V114.659L811.309 114.659V103.673C808.134 108.466 805.345 111.78 801.069 113.761C796.517 115.799 791.572 116.814 786.583 116.733C780.467 116.779 774.493 114.892 769.518 111.342" fill="#FFFFFF"/>
<path d="M745.648 15.9659H722.096V114.66H745.648V15.9659Z" fill="#FFFFFF"/>
<path d="M668.35 37.667H714.762V59.7835H692.18V114.659H668.35V37.667Z" fill="#FFFFFF"/>
<path d="M632.405 89.6402C635.682 86.416 637.321 81.9467 637.323 76.2325C637.323 70.3359 635.707 65.8205 632.474 62.6862C629.24 59.554 625.083 57.9875 620.006 57.9865C614.924 57.9865 610.79 59.553 607.606 62.6862C604.419 65.8198 602.826 70.3352 602.826 76.2325C602.826 81.947 604.442 86.4162 607.675 89.6402C610.906 92.8674 615.016 94.4801 620.006 94.4784C624.993 94.4784 629.126 92.8657 632.404 89.6402H632.405ZM599.501 111.273C593.31 107.724 588.153 102.626 584.539 96.4827C580.91 90.3106 578.996 83.2845 578.996 76.1287C578.996 68.973 580.91 61.9469 584.539 55.7748C588.203 49.6504 593.397 44.5797 599.614 41.0585C605.831 37.5372 612.857 35.6861 620.006 35.6861C627.155 35.6861 634.181 37.5372 640.398 41.0585C646.615 44.5797 651.809 49.6504 655.473 55.7748C659.102 61.9469 661.015 68.973 661.015 76.1287C661.015 83.2845 659.102 90.3106 655.473 96.4827C651.856 102.625 646.7 107.722 640.51 111.273C634.271 114.85 627.201 116.733 620.006 116.733C612.81 116.733 605.74 114.85 599.501 111.273" fill="#FFFFFF"/>
<path d="M467.196 37.667H491.718L502.802 80.5172L513.747 37.667H533.974L544.919 80.5172L555.725 37.667H580.387L559.465 114.659H534.944L523.86 70.7035L512.777 114.659H488.255L467.196 37.667Z" fill="#FFFFFF"/>
<path d="M430.522 37.6669V15.9652H412.373C406.494 15.9653 400.856 18.2954 396.698 22.4431C392.541 26.5907 390.206 32.2161 390.206 38.0817V51.3507H379.963V73.4673H390.206V114.659H414.036V73.4676H430.522V51.3507H414.036V37.6669H430.522Z" fill="#FFFFFF"/>
<path d="M344.021 89.6402C347.298 86.416 348.938 81.9467 348.939 76.2325C348.939 70.3359 347.323 65.8205 344.09 62.6862C340.856 59.554 336.7 57.9875 331.621 57.9865C326.541 57.9865 322.407 59.553 319.221 62.6862C316.035 65.8193 314.442 70.3347 314.442 76.2325C314.442 81.947 316.058 86.4162 319.291 89.6402C322.523 92.8674 326.633 94.4801 331.621 94.4784C336.609 94.4784 340.742 92.8657 344.021 89.6402ZM311.117 111.273C304.926 107.724 299.769 102.626 296.154 96.4827C292.525 90.3105 290.612 83.2844 290.612 76.1287C290.612 68.9731 292.525 61.947 296.154 55.7748C299.817 49.6503 305.012 44.5794 311.229 41.0581C317.445 37.5368 324.472 35.6856 331.621 35.6856C338.769 35.6856 345.796 37.5368 352.013 41.0581C358.229 44.5794 363.424 49.6503 367.088 55.7748C370.717 61.9468 372.63 68.973 372.63 76.1287C372.63 83.2844 370.717 90.3106 367.088 96.4827C363.472 102.625 358.315 107.722 352.126 111.273C345.887 114.85 338.817 116.733 331.621 116.733C324.426 116.733 317.356 114.85 311.117 111.273" fill="#FFFFFF"/>
<path d="M213.631 59.7833H203.385V37.6668H213.631V15.9651H237.322V37.6668H253.944V59.784H237.322V90.4701H253.944V114.66H235.798C229.919 114.66 224.281 112.33 220.124 108.183C215.967 104.035 213.631 98.4096 213.631 92.5439V59.7833Z" fill="#FFFFFF"/>
<path d="M182.757 69.7928C179.058 68.4875 175.265 67.4631 171.411 66.7281C167.361 65.9237 164.405 64.9045 162.624 63.6982C161.908 63.2872 161.313 62.6937 160.901 61.9784C160.49 61.263 160.276 60.4515 160.282 59.6267C160.266 58.8262 160.433 58.0327 160.768 57.3054C161.104 56.5781 161.6 55.9359 162.219 55.4268C163.619 54.2392 165.411 53.6135 167.247 53.6714C171.995 53.6714 174.403 55.5821 174.895 59.7834H199.719C199.567 56.4496 198.684 53.1895 197.135 50.2321C195.585 47.2747 193.405 44.6918 190.747 42.6646C184.837 37.9729 176.954 35.5939 167.312 35.5939C158.315 35.5939 150.909 37.9673 145.302 42.6495C142.579 44.8242 140.393 47.5929 138.91 50.7427C137.428 53.8925 136.689 57.3395 136.751 60.8186C136.688 64.7302 137.735 68.5799 139.772 71.9226C141.952 75.3045 144.924 78.1062 148.432 80.0859C152.12 82.2664 156.847 84.0472 162.479 85.3792C167.85 86.6493 171.513 87.8701 173.365 89.0083C174.976 89.9999 175.727 91.1953 175.727 92.77C175.758 93.5572 175.608 94.3409 175.29 95.062C174.972 95.783 174.494 96.4226 173.892 96.9322C172.622 98.029 170.608 98.5853 167.905 98.5853C164.913 98.5853 162.447 97.86 160.577 96.4281C158.947 95.1819 158.038 93.1697 157.835 90.4699H134.546C134.714 95.0034 136.169 99.3961 138.741 103.137C141.671 107.445 145.708 110.888 150.431 113.102C155.705 115.586 161.481 116.829 167.313 116.733C176.723 116.733 184.522 114.455 190.492 109.964C196.57 105.386 199.652 99.3666 199.652 92.0693C199.652 81.3969 193.968 73.9024 182.757 69.7932" fill="#FFFFFF"/>
<path d="M89.6644 53.7615C98.435 53.7615 105.545 60.1085 105.545 67.9389H73.7832C73.7832 60.1085 80.8933 53.7615 89.6644 53.7615ZM103.7 90.4694C101.033 94.9558 95.7498 98.0133 89.6644 98.0133C80.8933 98.0133 73.7832 91.6663 73.7832 83.8359L130.606 83.8345C130.784 81.8085 130.873 79.7813 130.874 77.753C130.955 70.3367 129.109 63.026 125.514 56.5343C122.026 50.2199 116.914 44.9475 110.704 41.2599C104.417 37.4855 97.2032 35.524 89.8656 35.5933C82.5925 35.5108 75.4267 37.3465 69.0931 40.9146C62.9087 44.4051 57.7717 49.4812 54.2137 55.6176C50.6558 61.754 48.8062 68.7275 48.8565 75.8165C48.7931 83.0419 50.6668 90.1528 54.2837 96.4128C57.8664 102.652 63.0527 107.824 69.3075 111.396C75.5623 114.968 82.6591 116.81 89.8656 116.733C99.5144 116.733 107.913 114.106 115.06 108.854C121.384 104.279 126.122 97.8535 128.617 90.469L103.7 90.4694Z" fill="#FFFFFF"/>
<path d="M0 37.667V114.659H23.8298V59.7829H46.4119V37.667H0Z" fill="#FFFFFF"/>
<path d="M107.499 25.9355C113.806 25.9355 118.919 20.8343 118.919 14.5416C118.919 8.24889 113.806 3.14766 107.499 3.14766C101.192 3.14766 96.0787 8.24889 96.0787 14.5416C96.0787 20.8343 101.192 25.9355 107.499 25.9355Z" fill="#FFFFFF"/>
<path d="M72.2361 25.9253C78.5432 25.9253 83.6561 20.8241 83.6561 14.5314C83.6561 8.23873 78.5432 3.1375 72.2361 3.1375C65.9291 3.1375 60.8162 8.23873 60.8162 14.5314C60.8162 20.8241 65.9291 25.9253 72.2361 25.9253Z" fill="#FFFFFF"/>
<path d="M147.913 140.593H158.485C159.268 144.304 162.009 147.625 166.903 147.625C171.797 147.625 174.734 144.695 174.734 140.593C174.734 136.49 171.797 133.952 167.686 133.952C165.448 134 163.247 134.533 161.235 135.514L155.94 130.045L164.162 115.201H177.114L170.068 124.348C178.923 124.348 187.263 129.459 187.263 141.374C187.263 150.598 178.062 157 167.49 157C156.136 157 148.697 150.359 147.913 140.593Z" fill="#FFFFFF"/>
<path d="M358.188 25.7848H345.267L332.135 12.3551L318.25 25.7848H305.721L325.6 0H338.129L358.188 25.7848Z" fill="#FFFFFF"/>
<path d="M331.553 149.251C337.86 149.251 342.972 144.15 342.972 137.857C342.972 131.565 337.86 126.464 331.553 126.464C325.245 126.464 320.133 131.565 320.133 137.857C320.133 144.15 325.245 149.251 331.553 149.251Z" fill="#FFFFFF"/>
<path d="M593.789 0.0254517H606.709C608.08 7.64388 611.827 13.4454 619.658 13.4454C627.88 13.4454 632.16 7.83842 633.726 0.0254517H646.255C645.472 14.8706 633.726 25.8092 619.63 25.8092C605.534 25.8092 594.571 14.8707 593.789 0.0254517Z" fill="#FFFFFF"/>
</svg>
